<svg xmlns="http://www.w3.org/2000/svg" viewBox="0 0 64 64" role="img" aria-label="F3K Logbook">
  <rect width="64" height="64" rx="14" fill="#8f1d1d"/>
  <path d="M10 42c9-1 16-6 22-15 6 9 13 14 22 15-8 3-16 2-22-3-6 5-14 6-22 3Z" fill="#f7f7f3"/>
  <path d="M32 16c2 7 2 13 0 20-2-7-2-13 0-20Z" fill="#f7f7f3"/>
  <path d="M26 41c2 3 4 5 6 7 2-2 4-4 6-7-4 1-8 1-12 0Z" fill="#f7f7f3" opacity=".86"/>
  <path d="M13 49c8-1 14-3 19-7 5 4 11 6 19 7" fill="none" stroke="#f7f7f3" stroke-width="2.2" stroke-linecap="round" opacity=".38"/>
</svg>
