<svg xmlns="http://www.w3.org/2000/svg" viewBox="0 0 512 512">
  <rect width="512" height="512" rx="88" fill="#08111d"/>
  <path d="M72 360 156 278 236 326 332 206 440 108" fill="none" stroke="#6d5cff" stroke-width="28" stroke-linecap="square" stroke-linejoin="miter"/>
  <path d="M72 360 156 278 236 326 332 206 440 108" fill="none" stroke="#16e7ff" stroke-width="10" stroke-linecap="square" stroke-linejoin="miter" opacity=".95"/>
  <g fill="#16e7ff"><rect x="63" y="392" width="46" height="12"/><rect x="63" y="416" width="76" height="12"/><rect x="63" y="440" width="32" height="12"/></g>
  <text x="58" y="232" font-family="Arial Black,Arial,sans-serif" font-size="104" font-style="italic" font-weight="900" letter-spacing="-8" fill="#f5f7ff">F3K</text>
  <path d="M206 159h104l-28 28h-104z" fill="#6d5cff"/>
  <g opacity=".38" stroke="#3b4b63" stroke-width="3"><path d="M72 84h368M72 164h368M72 244h368M72 324h368"/><path d="M112 72v340M212 72v340M312 72v340M412 72v340"/></g>
</svg>
